<?xml version="1.0" encoding="UTF-8"?>
<svg version="1.1" xmlns="http://www.w3.org/2000/svg" width="1000" height="1000">
    <path
        d="M0 0 C1.07351212 -0.0071553 2.14702423 -0.01431061 3.25306702 -0.02168274 C4.42091232 -0.02437164 5.58875763 -0.02706055 6.79199219 -0.02983093 C8.03005112 -0.03640213 9.26811005 -0.04297333 10.54368591 -0.04974365 C14.64208217 -0.06945716 18.74043931 -0.08114354 22.83886719 -0.09111023 C24.25542215 -0.09516108 25.67197692 -0.0992781 27.08853149 -0.10346031 C33.74938885 -0.12250162 40.41023523 -0.13673173 47.07111454 -0.14507228 C54.73055391 -0.1548242 62.38970272 -0.18109426 70.04903984 -0.22157317 C75.98730128 -0.25186621 81.92548009 -0.26655378 87.86381721 -0.26985329 C91.40165253 -0.27218986 94.93917711 -0.28096544 98.47692871 -0.30631447 C102.43490579 -0.33421653 106.3925099 -0.32972399 110.35058594 -0.32279968 C111.5022374 -0.33560974 112.65388885 -0.3484198 113.84043884 -0.36161804 C125.26143722 -0.28926384 136.13012173 2.1203615 144.58886719 10.14717102 C145.27722656 10.7839679 145.96558594 11.42076477 146.67480469 12.07685852 C155.26636168 20.79617101 157.39147448 30.17324392 158.58886719 42.14717102 C202.14886719 42.14717102 245.70886719 42.14717102 290.58886719 42.14717102 C290.58886719 39.83717102 290.58886719 37.52717102 290.58886719 35.14717102 C292.28114546 27.82026787 295.11768841 21.19106094 299.58886719 15.14717102 C300.19601562 14.32346008 300.80316406 13.49974915 301.42871094 12.65107727 C303.66849151 10.05487592 305.77636021 8.37674106 308.65136719 6.52217102 C309.50859375 5.9524054 310.36582031 5.38263977 311.24902344 4.79560852 C320.05122299 0.45113108 328.75661813 -0.28992094 338.44482422 -0.22514343 C340.29823425 -0.23061943 340.29823425 -0.23061943 342.18908691 -0.23620605 C345.54451162 -0.24287496 348.89937174 -0.23627005 352.25474024 -0.22287393 C355.78456252 -0.21146124 359.3143723 -0.21567433 362.84420776 -0.21762085 C368.76679257 -0.21850052 374.68926219 -0.20749038 380.61181641 -0.18901062 C387.4391537 -0.16782844 394.26632271 -0.16433927 401.09368622 -0.17057258 C407.69047949 -0.17628477 414.28721407 -0.17060003 420.88399887 -0.15939903 C423.67882254 -0.15477955 426.47361001 -0.15386759 429.26843643 -0.15598488 C433.17625346 -0.15823383 437.08391324 -0.14369722 440.99169922 -0.12748718 C442.13895477 -0.1299646 443.28621033 -0.13244202 444.4682312 -0.13499451 C456.64513209 -0.05462929 467.47866444 2.20237916 476.77636719 10.58467102 C488.02859574 22.63573933 489.89953837 37.36289258 489.81591797 53.12202454 C489.81535295 54.62086988 489.81567219 56.11971577 489.81680298 57.61856079 C489.81737394 61.66340261 489.80566135 65.70812444 489.79165506 69.75293851 C489.77910478 73.98899293 489.77797383 78.22505046 489.77560425 82.46112061 C489.76940207 90.47193905 489.75300841 98.48270253 489.73290527 106.49349684 C489.70631414 117.32609856 489.69556342 128.15871543 489.68390083 138.99134159 C489.66512685 156.04332585 489.62527278 173.09519417 489.58886719 190.14717102 C461.86886719 190.14717102 434.14886719 190.14717102 405.58886719 190.14717102 C405.58886719 182.88717102 405.58886719 175.62717102 405.58886719 168.14717102 C426.04886719 168.14717102 446.50886719 168.14717102 467.58886719 168.14717102 C467.52733949 145.84334102 467.52733949 145.84334102 467.42871094 123.53974915 C467.38023359 114.43892165 467.33576541 105.33820481 467.31787109 96.23725891 C467.30481744 89.60783136 467.27775883 82.97862993 467.23425412 76.34932977 C467.2117221 72.84284806 467.19595149 69.33664437 467.19698334 65.83008385 C467.19787498 61.90454278 467.16748296 57.97956478 467.13476562 54.05415344 C467.13979599 52.90615768 467.14482635 51.75816193 467.15000916 50.57537842 C467.05095324 42.85955733 466.16652029 34.72421433 461.24798203 28.43171978 C454.65050284 22.39268978 446.26638471 22.85341078 437.90551758 22.87251282 C436.74691727 22.86740189 435.58831696 22.86229095 434.39460754 22.85702515 C430.57519323 22.84315624 426.7559599 22.84408383 422.93652344 22.84638977 C420.94823387 22.84348481 418.95994423 22.84057486 416.97165579 22.83698303 C410.72465646 22.82591034 404.47771727 22.82543792 398.23071289 22.83149719 C391.80216326 22.83753698 385.37383249 22.82522087 378.94532019 22.80392712 C373.41047849 22.78627277 367.87570622 22.78031575 362.34083742 22.78356487 C359.04190914 22.78537163 355.74317113 22.78147546 352.44426155 22.76885033 C348.76320738 22.75649054 345.08265765 22.76327537 341.40161133 22.77485657 C340.31928223 22.76721283 339.23695313 22.75956909 338.12182617 22.75169373 C330.70573302 22.80316794 324.98711403 23.67571877 318.83886719 28.14717102 C315.63370237 32.42072411 314.17603892 37.08418185 312.58886719 42.14717102 C314.4721875 42.09496399 314.4721875 42.09496399 316.39355469 42.04170227 C332.28278739 41.72899709 344.62803947 44.05562237 356.73730469 55.12763977 C364.52158159 63.61808525 368.71824367 74.29719375 368.7091217 85.70877075 C368.71040334 86.67685552 368.71040334 86.67685552 368.71171087 87.66449755 C368.71335288 89.81866274 368.70786532 91.97274938 368.70239258 94.12690735 C368.7021104 95.6744232 368.70226903 97.22193918 368.70283508 98.76945496 C368.70312188 102.9653178 368.69724414 107.16115202 368.69026113 111.35700822 C368.68400802 115.74390407 368.68342224 120.13080058 368.68223572 124.5177002 C368.67912818 132.82258434 368.67092256 141.12745531 368.66088623 149.43233365 C368.64970718 158.88813246 368.64421012 168.34393189 368.63919079 177.79973567 C368.62873948 197.24888825 368.61115119 216.69802858 368.58886719 236.14717102 C356.57396191 236.52219335 344.56050463 236.80429579 332.54088306 236.97616577 C326.95586049 237.05876961 321.37491304 237.170257 315.79223633 237.35420227 C289.08808207 238.21068624 268.42742807 238.05815478 246.27487183 222.05482483 C242.74626973 219.54874158 239.05691693 217.53010777 235.22167969 215.54170227 C234.11050781 214.93004211 232.99933594 214.31838196 231.85449219 213.68818665 C229.73780321 212.5232179 227.62060464 211.35917462 225.50292969 210.19599915 C224.39949219 209.58820618 223.29605469 208.98041321 222.15917969 208.35420227 C221.30595879 207.89912041 221.30595879 207.89912041 220.4355011 207.43484497 C216.68344494 205.40806986 213.14145048 203.19739174 209.60522461 200.81196594 C193.97156297 190.61589093 181.02947646 189.36101465 162.65136719 189.83467102 C160.10647833 189.85171595 157.56154248 189.86281527 155.01660156 189.86787415 C148.87132588 189.89272754 142.73230461 189.99698743 136.58886719 190.14717102 C136.58886719 182.88717102 136.58886719 175.62717102 136.58886719 168.14717102 C202.13406316 165.12071875 202.13406316 165.12071875 223.09863281 181.27168274 C226.69297053 183.97871238 230.54973256 186.00357769 234.52636719 188.08467102 C235.90904199 188.85238095 237.28916847 189.62469467 238.66699219 190.40107727 C242.73138999 192.67436966 246.80725619 194.92662727 250.88574219 197.17451477 C251.53301773 197.53127792 252.18029327 197.88804108 252.84718323 198.25561523 C255.46410243 199.69769998 258.08120225 201.13945563 260.69869995 202.58049011 C262.53083294 203.58923532 264.3626035 204.5986362 266.19433594 205.60810852 C267.2580542 206.19382629 268.32177246 206.77954407 269.41772461 207.38301086 C272.58886719 209.14717102 272.58886719 209.14717102 275.52978516 211.33027649 C281.30164857 214.60915148 288.47819748 213.75284087 294.92871094 213.75654602 C296.42088096 213.77154236 297.91303448 213.78827255 299.40516663 213.80665588 C303.31284384 213.85017927 307.2202972 213.8702948 311.12817383 213.88539124 C315.12366897 213.90501687 319.11892427 213.94698055 323.11425781 213.98701477 C330.93906289 214.06215394 338.76376677 214.11254351 346.58886719 214.14717102 C346.52827094 197.20494188 346.45072756 180.26288579 346.35315228 163.3208313 C346.30823641 155.45387616 346.26881211 147.58696586 346.24243164 139.71992493 C346.21941738 132.86093017 346.18598125 126.00207783 346.14016563 119.14319611 C346.11627942 115.51333522 346.0975206 111.88361498 346.09125328 108.25367737 C346.0840515 104.19583643 346.05357685 100.13848331 346.02124023 96.08076477 C346.02339287 94.28648796 346.02339287 94.28648796 346.02558899 92.45596313 C345.92867388 83.85095196 344.95967479 76.51797862 338.58886719 70.14717102 C332.22324122 65.74477549 327.05073358 64.9981635 319.46847534 64.99327087 C318.64315217 64.98888862 317.817829 64.98450637 316.96749604 64.97999132 C314.19789216 64.9666212 311.4283201 64.96042845 308.65869141 64.95429993 C306.67435055 64.94639752 304.69001113 64.93812848 302.70567322 64.92951965 C296.18498097 64.90331437 289.66428236 64.88799291 283.14355469 64.87373352 C280.8976351 64.86837312 278.65171556 64.86299561 276.40579605 64.85760117 C267.06211084 64.83597413 257.71842734 64.81723812 248.37472343 64.80597878 C234.99077429 64.78974401 221.60711565 64.75657541 208.22327602 64.69957793 C198.80910422 64.66085505 189.39501004 64.64134325 179.98076069 64.63605821 C174.35993472 64.63240785 168.7394187 64.6204197 163.11867905 64.58795547 C157.82773075 64.55783403 152.5372793 64.55157775 147.2462635 64.56333923 C145.30892266 64.56355963 143.37155849 64.55528292 141.43429756 64.53768539 C126.06753996 64.25013705 126.06753996 64.25013705 112.96662712 71.62536049 C108.81290502 76.21337171 107.34484294 80.71745012 107.31039429 86.79763794 C107.2992308 87.92359375 107.28806732 89.04954956 107.27656555 90.20962524 C107.27332527 92.04813301 107.27332527 92.04813301 107.27001953 93.92378235 C107.25997391 95.22173737 107.24992828 96.51969238 107.23957825 97.85697937 C107.212315 101.40821043 107.19713981 104.9594019 107.18415022 108.51071 C107.16850355 112.22500023 107.14171823 115.93920981 107.11611938 119.65344238 C107.06935876 126.68331501 107.03260153 133.71320285 106.99944651 140.74315137 C106.95405337 150.24523169 106.89319071 159.74721214 106.83319855 169.2492094 C106.73911655 184.21514651 106.66568878 199.18111231 106.58886719 214.14717102 C141.23886719 214.14717102 175.88886719 214.14717102 211.58886719 214.14717102 C211.58886719 221.40717102 211.58886719 228.66717102 211.58886719 236.14717102 C169.34886719 236.14717102 127.10886719 236.14717102 83.58886719 236.14717102 C83.50826112 198.76386773 83.50826112 198.76386773 83.49121094 183.05732727 C83.47935953 172.22706704 83.46545293 161.39683801 83.43798828 150.56660461 C83.4179925 142.67780589 83.40513611 134.78903256 83.4006902 126.90020919 C83.39809326 122.72694614 83.39203175 118.55375572 83.37740707 114.38051605 C83.36372516 110.44401099 83.35966575 106.50760774 83.36265182 102.57108116 C83.36210637 101.13448977 83.35819259 99.69789459 83.35045624 98.26132393 C83.26788187 82.12191602 84.86405381 66.9099544 96.40136719 54.64717102 C108.11694584 44.10540757 120.30338326 41.73820973 135.58886719 41.14717102 C132.75010284 31.58785419 132.75010284 31.58785419 125.58886719 25.14717102 C119.40104225 22.8516364 113.56494902 22.85739173 107.01318359 22.87251282 C105.86594315 22.86740189 104.7187027 22.86229095 103.53669739 22.85702515 C99.75455468 22.84315616 95.97259476 22.84408397 92.19042969 22.84638977 C89.55398491 22.84250131 86.91754076 22.83816633 84.28109741 22.83340454 C78.75834541 22.82520484 73.2356446 22.82609057 67.71289062 22.83149719 C61.34684408 22.83753397 54.98101872 22.8252286 48.6150099 22.80392712 C42.46993252 22.78412784 36.32495791 22.78114441 30.17985153 22.78466225 C27.57482763 22.7841498 24.96980014 22.77892658 22.36479568 22.76885033 C18.71747189 22.75647366 15.0706559 22.76328569 11.42333984 22.77485657 C10.35395676 22.76721283 9.28457367 22.75956909 8.18278503 22.75169373 C0.47459693 22.80557063 -6.477618 23.40497239 -12.28613281 28.83467102 C-17.39587839 36.79986265 -17.85488627 43.54196063 -17.84350586 52.80537415 C-17.85369751 54.05499939 -17.86388916 55.30462463 -17.87438965 56.59211731 C-17.89929905 59.99661933 -17.9112255 63.40069081 -17.91724372 66.80524635 C-17.92666282 70.37139552 -17.95286889 73.93742165 -17.97724915 77.50349426 C-18.02082101 84.24640346 -18.049425 90.98928864 -18.07257253 97.73229551 C-18.10474815 106.85114255 -18.16020565 115.9698466 -18.21431828 125.0885849 C-18.29888075 139.44140428 -18.35247482 153.79416825 -18.41113281 168.14717102 C2.04886719 168.14717102 22.50886719 168.14717102 43.58886719 168.14717102 C43.58886719 175.40717102 43.58886719 182.66717102 43.58886719 190.14717102 C15.53886719 190.14717102 -12.51113281 190.14717102 -41.41113281 190.14717102 C-41.49173888 154.59989484 -41.49173888 154.59989484 -41.50878906 139.64326477 C-41.52063182 129.3377431 -41.53451391 119.03225425 -41.56201172 108.72676086 C-41.58203328 101.2195588 -41.59486992 93.71238351 -41.5993098 86.20515549 C-41.60190243 82.23527148 -41.60793586 78.26546402 -41.62259293 74.29560471 C-41.63631587 70.54787052 -41.64032623 66.80024335 -41.63734818 63.05248642 C-41.6381482 61.04413731 -41.64883194 59.03579945 -41.65997314 57.02748108 C-41.62121073 39.6734206 -39.71126873 23.92178536 -27.37597656 11.01826477 C-19.593891 3.56557966 -10.76721921 0.04948771 0 0 Z "
        fill="#82BE0F" transform="translate(281.4111328125,362.8528289794922)" />
    <path
        d="M0 0 C0.72418625 -0.0065712 1.4483725 -0.0131424 2.19450378 -0.01991272 C4.5872713 -0.03959326 6.97997603 -0.05129981 9.37280273 -0.0612793 C10.19387953 -0.06535482 11.01495632 -0.06943035 11.86091423 -0.07362938 C16.21131003 -0.09447301 20.56167449 -0.10877916 24.91210938 -0.11816406 C29.38169654 -0.12919358 33.85078108 -0.16355797 38.32019138 -0.20333576 C41.77685907 -0.22962582 45.23340954 -0.23786707 48.69016838 -0.24144554 C50.3362255 -0.24628367 51.98227838 -0.25781745 53.62823677 -0.27648354 C68.12022286 -0.43054743 80.02974398 1.96710421 90.90405273 12.2121582 C102.27084235 24.25883056 104.04980308 36.96948073 104.01855469 52.97729492 C104.02290901 54.45829524 104.02809454 55.93929331 104.03404236 57.42028809 C104.0473664 61.4203918 104.04801841 65.42040065 104.04547906 69.42052221 C104.04440483 72.77016708 104.04930425 76.1197931 104.05408448 79.4694339 C104.06515692 87.37734219 104.06562988 95.28520296 104.05957031 103.19311523 C104.05353229 111.32801287 104.06584237 119.46273746 104.08714038 127.59760559 C104.10480224 134.60343231 104.11075052 141.60920419 104.10750264 148.61505234 C104.10569689 152.78984229 104.10825473 156.9645088 104.12221718 161.13927841 C104.13486578 165.06775574 104.13278561 168.99596489 104.11980629 172.92443848 C104.11745615 174.35822773 104.12011849 175.79203628 104.12842941 177.22580338 C104.2132135 193.0017023 101.13015849 205.21867152 90.23608398 216.8449707 C78.90673094 227.44626187 66.36566926 228.64616841 51.62670898 228.6105957 C49.96198312 228.61516561 48.29725914 228.62047357 46.63253784 228.6264801 C43.1544424 228.63538025 39.67657694 228.63302412 36.19848633 228.62304688 C31.76820336 228.61156893 27.3387189 228.63176614 22.90854073 228.66096401 C19.47328754 228.67941973 16.03822236 228.67901489 12.60293198 228.67332649 C10.97085323 228.67317438 9.33876084 228.67912657 7.70672989 228.69161797 C-7.68444085 228.79283426 -19.30472796 225.51934955 -30.94360352 215.05200195 C-41.3509092 204.13643251 -42.55804977 190.60107523 -42.54663086 176.33837891 C-42.55262319 174.84106616 -42.55943035 173.34375648 -42.56698608 171.84645081 C-42.58458427 167.79657737 -42.58933892 163.74678856 -42.59061766 159.69688058 C-42.59204363 157.16063013 -42.59632172 154.6244009 -42.60161209 152.08815575 C-42.62009383 143.22265646 -42.62828527 134.35721713 -42.62670898 125.49169922 C-42.62550896 117.25627749 -42.64658867 109.02111841 -42.67819631 100.78576308 C-42.70444062 93.69245125 -42.71507284 86.59922475 -42.71379817 79.5058648 C-42.71329081 75.27953001 -42.71884743 71.05342871 -42.74015427 66.82714272 C-42.75967412 62.84690887 -42.75956852 58.86712791 -42.745121 54.88687706 C-42.74304852 53.43618474 -42.74763932 51.98546303 -42.75984192 50.53482056 C-42.86370494 37.31861859 -40.72126454 25.64002336 -32.25610352 15.17700195 C-31.77786133 14.5634082 -31.29961914 13.94981445 -30.80688477 13.31762695 C-23.16625965 4.61847695 -11.30915102 0.08510977 0 0 Z M-14.56860352 29.42700195 C-15.01848633 29.9477832 -15.46836914 30.46856445 -15.93188477 31.00512695 C-20.73199354 38.87787172 -20.69279734 46.34420825 -20.66015625 55.32885742 C-20.66586669 56.75222304 -20.67283355 58.17558408 -20.68095398 59.59893799 C-20.69882769 63.44618703 -20.69772782 67.29320727 -20.69201159 71.14048529 C-20.68891088 74.36094606 -20.69502208 77.58136344 -20.70105034 80.80181801 C-20.71507538 88.40429268 -20.71355157 96.00665493 -20.70214844 103.60913086 C-20.69067311 111.43223699 -20.7047375 119.25500006 -20.73154491 127.07806098 C-20.75375288 133.8129545 -20.76032773 140.54774073 -20.7544685 147.28266823 C-20.7511094 151.29706868 -20.75344369 155.31124935 -20.77071953 159.32561874 C-20.78626792 163.10314117 -20.78214672 166.8801584 -20.76341438 170.65766144 C-20.75801387 172.69055484 -20.7721829 174.72347136 -20.78710938 176.75631714 C-20.71894556 185.28639244 -19.78561073 192.79844827 -14.29125977 199.61450195 C-13.6402832 200.13012695 -12.98930664 200.64575195 -12.31860352 201.17700195 C-11.34600586 201.98137695 -11.34600586 201.98137695 -10.35375977 202.80200195 C-5.80845034 205.78142265 -1.97364469 206.43242426 3.42675781 206.4675293 C4.0778804 206.47424652 4.72900299 206.48096375 5.39985657 206.48788452 C7.541959 206.50680546 9.68374705 206.51078585 11.82592773 206.51293945 C13.3241946 206.5193722 14.82246022 206.52610091 16.32072449 206.53311157 C19.45863759 206.54507007 22.59644073 206.54879395 25.734375 206.54760742 C29.73907969 206.54740447 33.74307282 206.57468735 37.74760914 206.60915184 C40.84217005 206.63148211 43.93656148 206.63544308 47.03119469 206.63438797 C48.50667456 206.63673546 49.98215971 206.64551066 51.45755959 206.6610527 C60.53418225 206.74770555 67.40144946 206.49084425 74.73217773 200.5715332 C81.95091866 191.94737369 82.1830356 182.98763107 82.13208008 172.0793457 C82.13615237 170.67391555 82.14149793 169.2684886 82.14801025 167.86306763 C82.16161157 164.06964799 82.15641518 160.27647489 82.146873 156.4830513 C82.13923892 152.49943666 82.14633236 148.5158421 82.15103149 144.53222656 C82.15647819 137.84444416 82.14932605 131.15676139 82.13500977 124.46899414 C82.11868531 116.75439055 82.12397459 109.04002488 82.14048898 101.32542706 C82.15413491 94.68310107 82.15600837 88.04084641 82.14817297 81.39851093 C82.14351349 77.43953366 82.14282383 73.48066795 82.15278244 69.521698 C82.16149525 65.7983991 82.15535223 62.07540477 82.13809967 58.35213852 C82.13228827 56.34650838 82.1411134 54.34085227 82.15048218 52.3352356 C82.08284448 42.65265778 81.05532976 34.847891 74.29077148 27.61450195 C69.04756588 22.74202806 64.19289566 22.05892169 57.26635742 22 C55.9510907 21.98716476 54.63582397 21.97432953 53.28070068 21.96110535 C51.84656147 21.95293648 50.41241797 21.94549303 48.97827148 21.9387207 C48.2527433 21.93464518 47.52721512 21.93056965 46.77970123 21.92637062 C42.93850493 21.90554184 39.097344 21.89122705 35.25610352 21.88183594 C31.3040957 21.8707852 27.35265302 21.83639227 23.40084457 21.79666424 C20.34833789 21.77042388 17.29596433 21.76213753 14.2433548 21.75855446 C12.78739866 21.75370668 11.33144775 21.74214461 9.87560272 21.72351646 C0.56738595 21.61182721 -8.13598641 21.60919001 -14.56860352 29.42700195 Z "
        fill="#82BE0F" transform="translate(478.256103515625,156.822998046875)" />
    <path
        d="M0 0 C1.42254341 -0.01441132 1.42254341 -0.01441132 2.87382507 -0.02911377 C3.88846329 -0.03336365 4.9031015 -0.03761353 5.94848633 -0.04199219 C7.00530106 -0.04769226 8.06211578 -0.05339233 9.1509552 -0.05926514 C11.38594568 -0.06869934 13.62094997 -0.07524284 15.85595703 -0.07910156 C19.2509839 -0.08878297 22.64539889 -0.11981209 26.0402832 -0.15136719 C28.21801401 -0.15790039 30.39574912 -0.16314961 32.57348633 -0.16699219 C33.57800339 -0.17933899 34.58252045 -0.19168579 35.61747742 -0.20440674 C48.23922645 -0.16511807 57.58955367 3.93711834 66.84301758 12.41113281 C74.14716411 20.0380207 76.23685792 28.66699442 76.27001953 38.88598633 C76.27659073 39.76622971 76.28316193 40.64647308 76.28993225 41.5533905 C76.30963529 44.46560762 76.32132351 47.37777314 76.33129883 50.29003906 C76.33537436 51.28763685 76.33944988 52.28523464 76.34364891 53.31306267 C76.36450061 58.59713406 76.37880414 63.88117958 76.38818359 69.1652832 C76.39922366 74.60337611 76.43359853 80.0410571 76.47335529 85.47900486 C76.49959952 89.67684144 76.50788253 93.87458121 76.51146507 98.0724926 C76.51631377 100.07580269 76.52787834 102.07910895 76.54650307 104.08233833 C76.67018068 118.27092653 76.16136131 130.17529013 66.09301758 141.16113281 C55.91979432 151.47797805 44.31664261 153.27336147 30.28833008 153.46191406 C27.53636923 153.47947673 24.78496803 153.4832893 22.03295898 153.47680664 C19.23096751 153.47364741 16.43003543 153.49716806 13.62817383 153.52246094 C-0.08027147 153.57184349 -12.87647121 153.33159704 -23.90698242 144.16113281 C-24.5437793 143.63519531 -25.18057617 143.10925781 -25.83666992 142.56738281 C-33.47266616 135.61960941 -37.19329023 126.20438771 -38.0959568 116.0314064 C-38.17036745 113.8863937 -38.18886685 111.74930395 -38.18164062 109.60302734 C-38.18675156 108.8000824 -38.19186249 107.99713745 -38.1971283 107.16986084 C-38.21090333 104.54447749 -38.21007668 101.91936025 -38.20776367 99.29394531 C-38.2116573 97.44985865 -38.21599333 95.60577287 -38.2207489 93.76168823 C-38.22818519 89.90701381 -38.22793874 86.05243103 -38.22265625 82.19775391 C-38.21686576 77.28335219 -38.23379517 72.36932787 -38.25700092 67.45498848 C-38.27180665 63.64917852 -38.27260069 59.84345802 -38.2694912 56.03762436 C-38.270001 54.22691984 -38.27517388 52.41620986 -38.28530312 50.6055336 C-38.35777926 35.83949991 -37.41347783 22.73094015 -27.12573242 11.15722656 C-19.70425488 4.11594767 -10.22374568 0.0841854 0 0 Z M-12.90698242 30.16113281 C-15.46803553 33.93909316 -15.20268104 37.9238058 -15.19750977 42.32275391 C-15.20422699 43.14275375 -15.21094421 43.9627536 -15.21786499 44.80760193 C-15.23685289 47.51665314 -15.24076958 50.22545671 -15.24291992 52.93457031 C-15.24934731 54.82020164 -15.25607562 56.70583196 -15.26309204 58.59146118 C-15.27506678 62.54407056 -15.27877266 66.49659252 -15.27758789 70.44921875 C-15.27738469 75.50895133 -15.30468683 80.56812229 -15.33913231 85.62772179 C-15.36139235 89.52255823 -15.36542571 93.41725932 -15.36436844 97.31215286 C-15.36672574 99.17724162 -15.37555657 101.04233404 -15.39103317 102.90736008 C-15.41067516 105.51887863 -15.40486253 108.12918369 -15.39282227 110.74072266 C-15.40406128 111.5076796 -15.41530029 112.27463654 -15.42687988 113.06483459 C-15.3662492 118.25174245 -14.16737682 121.16030988 -10.90698242 125.16113281 C-7.0235513 128.5822507 -4.70243854 130.27801468 0.44750977 130.32226562 C1.79966583 130.33667694 1.79966583 130.33667694 3.17913818 130.35137939 C4.15618713 130.35562927 5.13323608 130.35987915 6.13989258 130.36425781 C7.14385071 130.36995789 8.14780884 130.37565796 9.18218994 130.38153076 C11.3106582 130.39098952 13.43914116 130.39751821 15.56762695 130.40136719 C18.81593627 130.41105207 22.06360741 130.44205896 25.31176758 130.47363281 C27.37947215 130.48016489 29.44718126 130.48541456 31.51489258 130.48925781 C32.4838446 130.50160461 33.45279663 130.51395142 34.45111084 130.52667236 C40.50254376 130.50680362 45.0714009 129.91719173 49.73754883 125.66113281 C53.79660627 120.44816272 54.24466299 116.71203824 54.25415039 110.29663086 C54.2591153 109.49628418 54.2640802 108.6959375 54.26919556 107.87133789 C54.28380822 105.22183372 54.29061791 102.57238943 54.29614258 99.92285156 C54.30189505 98.08063251 54.30765277 96.23841348 54.31341553 94.39619446 C54.32392316 90.53178631 54.32976729 86.66739894 54.33325195 82.80297852 C54.33873422 77.8565494 54.36275754 72.91039589 54.39122391 67.96405315 C54.40986868 64.15758975 54.41505688 60.35119247 54.41658783 56.54468727 C54.41961105 54.72146919 54.42762844 52.89825217 54.44077301 51.07507896 C54.457871 48.52111361 54.45594415 45.96781809 54.44946289 43.41381836 C54.45867767 42.66399185 54.46789246 41.91416534 54.47738647 41.14161682 C54.42831421 34.95345354 52.7203049 31.0962853 48.78051758 26.41113281 C43.32216858 21.84135226 37.57769723 21.85301485 30.78442383 21.86035156 C29.89947739 21.85606644 29.01453094 21.85178131 28.10276794 21.84736633 C26.23779147 21.84164306 24.37279268 21.84110795 22.5078125 21.84545898 C19.66798521 21.84861894 16.82920068 21.82513499 13.98950195 21.79980469 C12.17114388 21.79753135 10.35278303 21.79682836 8.53442383 21.79785156 C7.27161339 21.78403694 7.27161339 21.78403694 5.98329163 21.76994324 C-2.05644881 21.83246585 -7.52067881 23.85146287 -12.90698242 30.16113281 Z "
        fill="#82BE0F" transform="translate(651.906982421875,191.8388671875)" />
    <path
        d="M0 0 C1.42254341 -0.01441132 1.42254341 -0.01441132 2.87382507 -0.02911377 C3.88846329 -0.03336365 4.9031015 -0.03761353 5.94848633 -0.04199219 C7.00530106 -0.04769226 8.06211578 -0.05339233 9.1509552 -0.05926514 C11.38594568 -0.06869934 13.62094997 -0.07524284 15.85595703 -0.07910156 C19.2509839 -0.08878297 22.64539889 -0.11981209 26.0402832 -0.15136719 C28.21801401 -0.15790039 30.39574912 -0.16314961 32.57348633 -0.16699219 C33.57800339 -0.17933899 34.58252045 -0.19168579 35.61747742 -0.20440674 C48.23922645 -0.16511807 57.58955367 3.93711834 66.84301758 12.41113281 C74.17096964 20.0628781 76.23369224 28.7138297 76.28588867 38.96191406 C76.29815491 40.29450005 76.29815491 40.29450005 76.31066895 41.65400696 C76.33547582 44.5938755 76.35203122 47.53369573 76.36645508 50.47363281 C76.37177876 51.48101501 76.37710243 52.48839722 76.38258743 53.52630615 C76.40930468 58.86339557 76.42868003 64.20046177 76.44311523 69.53759766 C76.45642605 73.93917757 76.48422827 78.34029078 76.52514648 82.74169922 C76.57467184 88.06967769 76.59926118 93.39723456 76.60634232 98.72543335 C76.61302327 100.74747318 76.62816218 102.76950477 76.65223312 104.79141235 C76.82342907 120.04775068 75.76262838 131.47943096 64.60864258 142.96582031 C52.15181351 153.83653139 37.63294667 153.51360326 21.97802734 153.47680664 C19.16505252 153.47364353 16.35312895 153.49718189 13.5402832 153.52246094 C-1.76224343 153.57667603 -15.45006793 152.30689697 -27.15698242 141.47363281 C-38.57251247 129.35315967 -38.22198236 114.33040466 -38.20776367 98.66894531 C-38.21165887 96.87352399 -38.21599521 95.07810358 -38.2207489 93.28268433 C-38.22817886 89.5323385 -38.22794336 85.78208686 -38.22265625 82.03173828 C-38.21686606 77.25534298 -38.23379752 72.47933602 -38.25700092 67.70300484 C-38.2718214 63.99838046 -38.27259872 60.29384784 -38.2694912 56.58919907 C-38.27000024 54.82956041 -38.27515853 53.06991604 -38.28530312 51.31030655 C-38.36044173 36.45691567 -37.49746064 22.80658204 -27.12573242 11.16113281 C-19.71274055 4.11271431 -10.22048725 0.08415857 0 0 Z M-12.90698242 30.16113281 C-15.46803553 33.93909316 -15.20268104 37.9238058 -15.19750977 42.32275391 C-15.20422699 43.14275375 -15.21094421 43.9627536 -15.21786499 44.80760193 C-15.23685289 47.51665314 -15.24076958 50.22545671 -15.24291992 52.93457031 C-15.24934731 54.82020164 -15.25607562 56.70583196 -15.26309204 58.59146118 C-15.27506678 62.54407056 -15.27877266 66.49659252 -15.27758789 70.44921875 C-15.27738469 75.50895133 -15.30468683 80.56812229 -15.33913231 85.62772179 C-15.36139235 89.52255823 -15.36542571 93.41725932 -15.36436844 97.31215286 C-15.36672574 99.17724162 -15.37555657 101.04233404 -15.39103317 102.90736008 C-15.41067516 105.51887863 -15.40486253 108.12918369 -15.39282227 110.74072266 C-15.40406128 111.5076796 -15.41530029 112.27463654 -15.42687988 113.06483459 C-15.3662492 118.25174245 -14.16737682 121.16030988 -10.90698242 125.16113281 C-6.9838895 128.61719086 -4.658808 130.27514782 0.53930664 130.33813477 C1.46076477 130.35097 2.3822229 130.36380524 3.331604 130.37702942 C4.8299881 130.38810982 4.8299881 130.38810982 6.35864258 130.39941406 C7.38479675 130.40748581 8.41095093 130.41555756 9.46820068 130.4238739 C11.64374091 130.4377217 13.81930294 130.44844073 15.99487305 130.45629883 C19.31576999 130.47349175 22.63566643 130.51737003 25.95629883 130.56152344 C28.06957275 130.571652 30.18285515 130.58016759 32.29614258 130.58691406 C33.28696838 130.60442215 34.27779419 130.62193024 35.29864502 130.63996887 C41.09234778 130.62182256 44.5310467 130.10212367 49.09301758 126.16113281 C53.78322693 120.9638738 54.24617147 116.99188521 54.27001953 110.20483398 C54.27659073 109.39473373 54.28316193 108.58463348 54.28993225 107.74998474 C54.3096493 105.06802273 54.32132392 102.38611666 54.33129883 99.70410156 C54.33537436 98.78760645 54.33944988 97.87111134 54.34364891 96.92684364 C54.36450225 92.07647553 54.3788075 87.22613566 54.38818359 82.37573242 C54.39925012 77.36868941 54.43365489 72.36209055 54.47335529 67.35520458 C54.49951096 63.50241779 54.50787447 59.64973704 54.51146507 55.79686928 C54.51633327 53.95130728 54.52795393 52.10575009 54.54650307 50.26027489 C54.57087381 47.67503091 54.56993357 45.09093913 54.56298828 42.50561523 C54.57579834 41.74643799 54.5886084 40.98726074 54.60180664 40.20507812 C54.5434834 34.23567998 52.5734984 30.77183888 48.53051758 26.51660156 C44.29737174 23.07717057 41.34022172 22.05234572 35.98632812 22 C35.18837326 21.99039246 34.3904184 21.98078491 33.56828308 21.97088623 C32.71406265 21.96663635 31.85984222 21.96238647 30.97973633 21.95800781 C30.09195999 21.95230774 29.20418365 21.94660767 28.289505 21.94073486 C26.41257921 21.93129981 24.53563695 21.92475683 22.65869141 21.92089844 C19.80121645 21.91120304 16.94446418 21.88016986 14.0871582 21.84863281 C12.2596885 21.84210109 10.43221367 21.83685128 8.60473633 21.83300781 C7.75658859 21.82066101 6.90844086 21.80831421 6.03459167 21.79559326 C-2.03733462 21.82559612 -7.49714598 23.82389583 -12.90698242 30.16113281 Z "
        fill="#82BE0F" transform="translate(318.906982421875,191.8388671875)" />
    <path
        d="M0 0 C7.26 0 14.52 0 22 0 C21.98839844 1.558396 21.97679687 3.11679199 21.96484375 4.72241211 C21.93219077 10.53189305 21.95223352 16.34022739 21.98779297 22.1496582 C21.99587904 24.65876738 21.98987801 27.16796464 21.96923828 29.67700195 C21.94196561 33.29493742 21.96618495 36.90952481 22 40.52734375 C21.9805835 41.64020248 21.96116699 42.75306122 21.94116211 43.89964294 C22.06210388 50.50480104 23.05218147 55.63393132 27.91186523 60.36155701 C35.37251773 64.31988614 44.55818598 63.19953975 52.78125 63.09765625 C54.92217369 63.10331274 57.06309026 63.11292809 59.20397949 63.12632751 C64.82029677 63.15089629 70.43509349 63.12189251 76.05126953 63.08154297 C82.79948776 63.04428111 89.54770726 63.07388439 96.29595947 63.09221649 C106.53155006 63.11256757 116.76346831 63.04824911 127 63 C127 42.21 127 21.42 127 0 C134.26 0 141.52 0 149 0 C149 49.17 149 98.34 149 149 C141.74 149 134.48 149 127 149 C127 128.21 127 107.42 127 86 C120.01070312 86.30164063 113.02140625 86.60328125 105.8203125 86.9140625 C101.33529337 87.04726121 96.8527821 87.17240189 92.3671875 87.26953125 C85.27727276 87.42379319 78.19624866 87.6041141 71.11328125 87.96142578 C27.33852564 90.10807631 27.33852564 90.10807631 13.21881104 78.18939209 C3.01271577 68.59345238 -1.96505056 58.42957542 -2.5390625 44.3359375 C-2.48213119 39.66609747 -2.19435753 35.05225709 -1.78527832 30.40100098 C-1.51289858 26.95798005 -1.39928575 23.50940892 -1.26953125 20.05859375 C-0.99547923 13.35827305 -0.54125457 6.68401351 0 0 Z "
        fill="#82BE0F" transform="translate(779,666)" />
    <path
        d="M0 0 C7.84741777 -0.068949 15.69378021 -0.1286625 23.54125977 -0.16479492 C26.20973072 -0.17816361 28.87771718 -0.20031605 31.54614258 -0.22631836 C35.38629252 -0.26279585 39.22611438 -0.27974859 43.06640625 -0.29296875 C44.84961021 -0.31619453 44.84961021 -0.31619453 46.6688385 -0.33988953 C54.16246769 -0.34140474 59.53650526 0.03129022 65.40625 5.0625 C67.73778009 9.35982996 67.58370047 13.18722286 67.5 18 C67.52320313 19.33417969 67.52320313 19.33417969 67.546875 20.6953125 C67.52197158 24.86663531 67.37279073 27.36748474 65.22265625 31.015625 C60.38880914 35.33125651 54.49457502 36.06590361 48.19140625 36.578125 C46.72682983 36.7004248 46.72682983 36.7004248 45.23266602 36.82519531 C44.12749634 36.91172363 44.12749634 36.91172363 43 37 C43.73637695 37.37286133 44.47275391 37.74572266 45.23144531 38.12988281 C48.57509435 39.82859571 51.912549 41.53914422 55.25 43.25 C56.40886719 43.83652344 57.56773437 44.42304687 58.76171875 45.02734375 C59.87675781 45.60097656 60.99179687 46.17460938 62.140625 46.765625 C63.16704102 47.28930664 64.19345703 47.81298828 65.25097656 48.35253906 C67.95635645 49.97384488 69.88709175 51.67491687 72 54 C50.82429486 56.91706142 36.13067628 48.42045085 19 37 C15.535 36.505 15.535 36.505 12 36 C12 41.94 12 47.88 12 54 C8.04 54 4.08 54 0 54 C0 36.18 0 18.36 0 0 Z M12 11 C12 15.29 12 19.58 12 24 C17.94479629 24.07401579 23.88932593 24.12853813 29.83447266 24.16479492 C31.85795766 24.17990526 33.8814098 24.20039437 35.90478516 24.22631836 C38.80900165 24.26260328 41.71278615 24.27970355 44.6171875 24.29296875 C45.52556366 24.30845261 46.43393982 24.32393646 47.36984253 24.33988953 C48.63092331 24.34022942 48.63092331 24.34022942 49.91748047 24.34057617 C50.65916473 24.34723801 51.400849 24.35389984 52.16500854 24.36076355 C52.77055573 24.24171158 53.37610291 24.12265961 54 24 C56.44897847 20.32653229 56.31537716 18.33643601 56 14 C52.89145714 10.89145714 50.41288447 11.01188948 46.05761719 10.88647461 C44.47069432 10.88663222 42.88376571 10.89223912 41.296875 10.90234375 C40.45908508 10.9037587 39.62129517 10.90517365 38.75811768 10.90663147 C36.08870843 10.91221803 33.4193838 10.92476806 30.75 10.9375 C28.93750121 10.94251674 27.12500111 10.94707934 25.3125 10.95117188 C20.87496752 10.96218306 16.43749809 10.97943845 12 11 Z "
        fill="#82BE0F" transform="translate(525,748)" />
    <path
        d="M0 0 C21.78 0 43.56 0 66 0 C66 3.63 66 7.26 66 11 C47.85 11 29.7 11 11 11 C11 12.65 11 14.3 11 16 C25.85 16 40.7 16 56 16 C56 19.96 56 23.92 56 28 C41.15 28 26.3 28 11 28 C11 32.62 11 37.24 11 42 C29.15 42 47.3 42 66 42 C66 45.96 66 49.92 66 54 C44.22 54 22.44 54 0 54 C0 36.18 0 18.36 0 0 Z "
        fill="#82BE0F" transform="translate(232,748)" />
    <path
        d="M0 0 C7.68670006 -0.06899631 15.37231867 -0.12869553 23.05908203 -0.16479492 C25.67207487 -0.17984933 28.28504258 -0.2002973 30.89794922 -0.22631836 C34.66119605 -0.26284778 38.42410775 -0.2797604 42.1875 -0.29296875 C43.34926758 -0.30845261 44.51103516 -0.32393646 45.70800781 -0.33988953 C52.19945605 -0.34122607 57.12583524 0.15750895 63 3 C67.34378157 7.48390356 67.20986417 12.43489714 67.25 18.375 C67.270625 19.13039063 67.29125 19.88578125 67.3125 20.6640625 C67.34450502 25.24078014 67.12080352 28.39402954 64 32 C59.49036975 34.68110693 55.27504773 35.64355116 50.125 36.1875 C49.09246094 36.3102832 49.09246094 36.3102832 48.0390625 36.43554688 C46.36052643 36.63370738 44.68039519 36.81827787 43 37 C43.84296631 37.4439209 44.68593262 37.8878418 45.55444336 38.34521484 C48.67472995 39.99187116 51.79222594 41.64358308 54.90795898 43.29882812 C56.25810844 44.01475003 57.60934392 44.72862766 58.96166992 45.44042969 C60.90310869 46.46276415 62.84054804 47.49233989 64.77734375 48.5234375 C65.38464828 48.84122162 65.99195282 49.15900574 66.61766052 49.48641968 C70.88612829 51.77225659 70.88612829 51.77225659 72 54 C54.75698713 56.79468323 43.42041414 51.61763077 28.88085938 43.13500977 C27.87786049 42.55233337 27.87786049 42.55233337 26.854599 41.95788574 C25.59833967 41.22040234 24.34941314 40.47021631 23.10987854 39.70495605 C18.71305632 37.08012674 16.47093038 36.78156148 11 36 C11 41.94 11 47.88 11 54 C7.37 54 3.74 54 0 54 C0 36.18 0 18.36 0 0 Z M11 11 C11 15.29 11 19.58 11 24 C16.94482112 24.02467203 22.8896126 24.04284663 28.83447266 24.05493164 C30.85791543 24.05996831 32.88135456 24.06679789 34.90478516 24.07543945 C37.80892843 24.08753412 40.71302369 24.09323488 43.6171875 24.09765625 C44.97975174 24.10539818 44.97975174 24.10539818 46.36984253 24.11329651 C47.63092331 24.11340981 47.63092331 24.11340981 48.91748047 24.11352539 C49.65916473 24.115746 50.400849 24.11796661 51.16500854 24.12025452 C53.09774915 24.11269473 53.09774915 24.11269473 55 23 C55 19.7 55 16.4 55 13 C50.32263818 10.61384366 46.09833646 10.74082747 40.98046875 10.8046875 C39.69261223 10.80893234 39.69261223 10.80893234 38.3787384 10.81326294 C35.64818125 10.8244193 32.9179573 10.84951541 30.1875 10.875 C28.33138496 10.88503568 26.47526476 10.8941605 24.61914062 10.90234375 C20.07929954 10.92434374 15.53970619 10.95884219 11 11 Z "
        fill="#82BE0F" transform="translate(159,748)" />
    <path
        d="M0 0 C8.559375 -0.061875 17.11875 -0.12375 25.9375 -0.1875 C28.62253662 -0.21481201 31.30757324 -0.24212402 34.07397461 -0.27026367 C36.22509309 -0.27903343 38.37621659 -0.28667621 40.52734375 -0.29296875 C42.17482605 -0.3159906 42.17482605 -0.3159906 43.85559082 -0.33947754 C51.38965313 -0.34201854 58.43689487 0.1495159 64.5 5 C67.57301563 9.09735417 67.21689584 13.4755844 67.25 18.375 C67.270625 19.13039063 67.29125 19.88578125 67.3125 20.6640625 C67.34480689 25.28394761 66.97317167 28.2391862 64 32 C58.91786866 35.64870968 54.39610506 36.13227265 48.25 36.5625 C47.07953125 36.64628906 45.9090625 36.73007812 44.703125 36.81640625 C43.81109375 36.87699219 42.9190625 36.93757812 42 37 C42.73114014 37.37286133 43.46228027 37.74572266 44.21557617 38.12988281 C47.54258171 39.83073356 50.86505136 41.5402661 54.1875 43.25 C55.33798828 43.83652344 56.48847656 44.42304687 57.67382812 45.02734375 C59.34155273 45.88779297 59.34155273 45.88779297 61.04296875 46.765625 C62.06414795 47.28930664 63.08532715 47.81298828 64.13745117 48.35253906 C67.0112856 50.00649511 69.47076362 51.86284605 72 54 C50.36662564 57.08912419 35.4673155 48.644877 18 37 C16.02 36.67 14.04 36.34 12 36 C12 41.94 12 47.88 12 54 C8.04 54 4.08 54 0 54 C0 36.18 0 18.36 0 0 Z M12 11 C12 15.62 12 20.24 12 25 C17.48094366 25.049467 22.96175713 25.0857514 28.44287109 25.10986328 C30.30715194 25.11991593 32.17141703 25.13356005 34.03564453 25.15087891 C36.71651091 25.17515953 39.39716866 25.18649047 42.078125 25.1953125 C43.32677338 25.21079636 43.32677338 25.21079636 44.60064697 25.22659302 C45.77140778 25.22681961 45.77140778 25.22681961 46.96582031 25.22705078 C47.99174286 25.23371262 47.99174286 25.23371262 49.03839111 25.24050903 C51.44520689 25.05659716 51.44520689 25.05659716 55 23 C55 19.7 55 16.4 55 13 C46.22471994 10.44096311 37.48342183 10.77568693 28.4375 10.875 C26.8405004 10.88504912 25.24349468 10.89417156 23.64648438 10.90234375 C19.76416994 10.92420609 15.88215356 10.9586294 12 11 Z "
        fill="#82BE0F" transform="translate(677,666)" />
    <path
        d="M0 0 C8.559375 -0.061875 17.11875 -0.12375 25.9375 -0.1875 C28.62253662 -0.21481201 31.30757324 -0.24212402 34.07397461 -0.27026367 C36.22509309 -0.27903343 38.37621659 -0.28667621 40.52734375 -0.29296875 C42.17482605 -0.3159906 42.17482605 -0.3159906 43.85559082 -0.33947754 C51.38965313 -0.34201854 58.43689487 0.1495159 64.5 5 C67.57301563 9.09735417 67.21689584 13.4755844 67.25 18.375 C67.270625 19.13039063 67.29125 19.88578125 67.3125 20.6640625 C67.34480689 25.28394761 66.97317167 28.2391862 64 32 C58.91786866 35.64870968 54.39610506 36.13227265 48.25 36.5625 C47.07953125 36.64628906 45.9090625 36.73007812 44.703125 36.81640625 C43.81109375 36.87699219 42.9190625 36.93757812 42 37 C42.73114014 37.37286133 43.46228027 37.74572266 44.21557617 38.12988281 C47.54258171 39.83073356 50.86505136 41.5402661 54.1875 43.25 C55.33798828 43.83652344 56.48847656 44.42304687 57.67382812 45.02734375 C59.34155273 45.88779297 59.34155273 45.88779297 61.04296875 46.765625 C62.06414795 47.28930664 63.08532715 47.81298828 64.13745117 48.35253906 C67.0112856 50.00649511 69.47076362 51.86284605 72 54 C50.36662564 57.08912419 35.4673155 48.644877 18 37 C16.02 36.67 14.04 36.34 12 36 C12 41.94 12 47.88 12 54 C8.04 54 4.08 54 0 54 C0 36.18 0 18.36 0 0 Z M12 11 C12 15.62 12 20.24 12 25 C17.48094366 25.049467 22.96175713 25.0857514 28.44287109 25.10986328 C30.30715194 25.11991593 32.17141703 25.13356005 34.03564453 25.15087891 C36.71651091 25.17515953 39.39716866 25.18649047 42.078125 25.1953125 C43.32677338 25.21079636 43.32677338 25.21079636 44.60064697 25.22659302 C45.77140778 25.22681961 45.77140778 25.22681961 46.96582031 25.22705078 C47.99174286 25.23371262 47.99174286 25.23371262 49.03839111 25.24050903 C51.44520689 25.05659716 51.44520689 25.05659716 55 23 C55 19.7 55 16.4 55 13 C46.22471994 10.44096311 37.48342183 10.77568693 28.4375 10.875 C26.8405004 10.88504912 25.24349468 10.89417156 23.64648438 10.90234375 C19.76416994 10.92420609 15.88215356 10.9586294 12 11 Z "
        fill="#82BE0F" transform="translate(307,666)" />
    <path
        d="M0 0 C22.11 0 44.22 0 67 0 C67 3.63 67 7.26 67 11 C48.85 11 30.7 11 12 11 C12 12.98 12 14.96 12 17 C26.85 17 41.7 17 57 17 C57 20.63 57 24.26 57 28 C42.15 28 27.3 28 12 28 C12 32.95 12 37.9 12 43 C30.15 43 48.3 43 67 43 C67 46.63 67 50.26 67 54 C44.89 54 22.78 54 0 54 C0 36.18 0 18.36 0 0 Z "
        fill="#82BE0F" transform="translate(603,666)" />
    <path
        d="M0 0 C2.05660033 0.00851745 4.11041997 -0.02034348 6.16674805 -0.05200195 C15.56859914 -0.1020563 23.54779196 1.06612236 31.12573242 6.94604492 C33.82944946 9.64976196 35.41330641 11.64642114 35.86624146 15.48358154 C35.86180023 16.20305969 35.85735901 16.92253784 35.8527832 17.66381836 C35.85263214 18.48436707 35.85248108 19.30491577 35.85232544 20.15032959 C35.84200287 21.0265094 35.8316803 21.90268921 35.82104492 22.80541992 C35.81821503 23.70979797 35.81538513 24.61417603 35.81246948 25.54595947 C35.80129024 28.42945687 35.77618976 31.31264168 35.75073242 34.19604492 C35.74069971 36.15307168 35.73157436 38.11010332 35.72338867 40.06713867 C35.70135827 44.86022754 35.66684386 49.65308326 35.62573242 54.44604492 C31.66573242 54.44604492 27.70573242 54.44604492 23.62573242 54.44604492 C23.62573242 49.16604492 23.62573242 43.88604492 23.62573242 38.44604492 C9.43573242 38.44604492 -4.75426758 38.44604492 -19.37426758 38.44604492 C-19.37426758 43.72604492 -19.37426758 49.00604492 -19.37426758 54.44604492 C-23.33426758 54.44604492 -27.29426758 54.44604492 -31.37426758 54.44604492 C-31.44873229 49.02004966 -31.50301795 43.59435552 -31.5390625 38.16796875 C-31.55409745 36.324166 -31.57453091 34.4803987 -31.60058594 32.63671875 C-31.63720318 29.97801942 -31.65404701 27.31979522 -31.66723633 24.66088867 C-31.68272018 23.84394028 -31.69820404 23.02699188 -31.7141571 22.18528748 C-31.71610795 15.46748228 -30.5312417 10.7057321 -25.74926758 5.69604492 C-18.0732926 0.01987867 -9.20513438 -0.05804546 0 0 Z M-17.87426758 16.13354492 C-20.09985572 19.10526253 -20.09985572 19.10526253 -19.37426758 26.44604492 C-5.18426758 26.44604492 9.00573242 26.44604492 23.62573242 26.44604492 C24.41187856 18.24652185 24.41187856 18.24652185 22.12573242 15.00854492 C16.05571872 11.21478636 9.07816085 11.10564593 2.12573242 11.13354492 C1.32264648 11.11743164 0.51956055 11.10131836 -0.30786133 11.0847168 C-6.93229046 11.07934854 -12.28808999 12.36287505 -17.87426758 16.13354492 Z "
        fill="#82BE0F" transform="translate(411.374267578125,665.553955078125)" />
    <path
        d="M0 0 C0.72245911 -0.0066568 1.44491821 -0.0133136 2.18927002 -0.02017212 C3.71209182 -0.03025146 5.23495737 -0.03499061 6.7578125 -0.03466797 C9.05805461 -0.03902449 11.35634866 -0.07534372 13.65625 -0.11328125 C22.47862081 -0.18197482 31.43504674 -0.19401126 38.28222656 6.14501953 C41.78017381 9.95835546 43.4582298 13.09271572 43.44165039 18.34838867 C43.44153709 19.5492939 43.44153709 19.5492939 43.44142151 20.77445984 C43.43626022 21.63392715 43.43109894 22.49339447 43.42578125 23.37890625 C43.4243663 24.2625032 43.42295135 25.14610016 43.42149353 26.05647278 C43.41589569 28.87882878 43.40334361 31.70110547 43.390625 34.5234375 C43.38560972 36.43684781 43.38104686 38.35025937 43.37695312 40.26367188 C43.36592697 44.95445764 43.34866383 49.64518413 43.328125 54.3359375 C39.368125 54.3359375 35.408125 54.3359375 31.328125 54.3359375 C31.328125 48.7259375 31.328125 43.1159375 31.328125 37.3359375 C17.138125 37.3359375 2.948125 37.3359375 -11.671875 37.3359375 C-11.671875 42.9459375 -11.671875 48.5559375 -11.671875 54.3359375 C-15.631875 54.3359375 -19.591875 54.3359375 -23.671875 54.3359375 C-23.77112033 48.62513234 -23.84352121 42.91483469 -23.89160156 37.20336914 C-23.91165528 35.26252492 -23.93890545 33.32174065 -23.97363281 31.38110352 C-24.02242675 28.58334518 -24.04490627 25.78638905 -24.0625 22.98828125 C-24.08314514 22.1275853 -24.10379028 21.26688934 -24.12506104 20.38011169 C-24.12722123 14.51477345 -23.0796691 11.14460211 -19.671875 6.3359375 C-13.59634635 1.44909924 -7.67047251 0.02505505 0 0 Z M-11.671875 17.3359375 C-11.671875 20.3059375 -11.671875 23.2759375 -11.671875 26.3359375 C2.518125 26.3359375 16.708125 26.3359375 31.328125 26.3359375 C32.18193997 18.0751199 32.18193997 18.0751199 29.640625 14.8984375 C23.35479882 10.65125765 17.29793518 10.96939926 9.953125 10.9609375 C8.28636719 10.92419922 8.28636719 10.92419922 6.5859375 10.88671875 C-1.19487115 10.85893015 -6.01550234 11.67956484 -11.671875 17.3359375 Z "
        fill="#82BE0F" transform="translate(329.671875,747.6640625)" />
    <path
        d="M0 0 C1.40114493 -0.01145438 2.80224852 -0.03180141 4.203125 -0.06152344 C23.54360855 -0.47107585 23.54360855 -0.47107585 30.89689636 5.88473511 C35.23496231 10.25732202 36.85481298 13.44500173 36.85093689 19.60510254 C36.81480789 20.48251099 36.77867889 21.35991943 36.74145508 22.26391602 C36.73155045 23.18483032 36.72164581 24.10574463 36.71144104 25.05456543 C36.67253784 27.96978222 36.58476891 30.88110547 36.49536133 33.79516602 C36.46021602 35.78209045 36.42828268 37.76907445 36.3996582 39.75610352 C36.32285557 44.60393705 36.20224674 49.44889363 36.05786133 54.29516602 C32.42786133 54.29516602 28.79786133 54.29516602 25.05786133 54.29516602 C25.05786133 49.01516602 25.05786133 43.73516602 25.05786133 38.29516602 C10.53786133 38.29516602 -3.98213867 38.29516602 -18.94213867 38.29516602 C-18.94213867 43.57516602 -18.94213867 48.85516602 -18.94213867 54.29516602 C-22.57213867 54.29516602 -26.20213867 54.29516602 -29.94213867 54.29516602 C-30.04125557 48.42363371 -30.11372479 42.55259188 -30.16186523 36.68041992 C-30.18194036 34.68423984 -30.20920656 32.68811827 -30.24389648 30.69213867 C-30.29259524 27.81747981 -30.31514854 24.94360062 -30.33276367 22.06860352 C-30.35340881 21.1808725 -30.37405396 20.29314148 -30.39532471 19.37850952 C-30.3973148 13.84268144 -29.65942642 10.67650043 -25.94213867 6.29516602 C-23.72338867 4.65063477 -23.72338867 4.65063477 -21.44213867 3.48266602 C-20.68932617 3.0843457 -19.93651367 2.68602539 -19.16088867 2.27563477 C-13.0396441 -0.42935183 -6.57013622 0.03728276 0 0 Z M-17.44213867 15.98266602 C-19.66772681 18.95438363 -19.66772681 18.95438363 -18.94213867 26.29516602 C-4.42213867 26.29516602 10.09786133 26.29516602 25.05786133 26.29516602 C25.83507183 18.78883452 25.83507183 18.78883452 22.99536133 15.42016602 C16.86688891 10.98680299 10.43129813 10.95524315 3.12036133 10.98266602 C1.83742188 10.95849609 1.83742188 10.95849609 0.52856445 10.93383789 C-6.27483043 10.92864842 -11.69710636 12.1047692 -17.44213867 15.98266602 Z "
        fill="#82BE0F" transform="translate(262.942138671875,665.704833984375)" />
    <path
        d="M0 0 C0.86179367 -0.00570007 1.72358734 -0.01140015 2.61149597 -0.01727295 C4.43117048 -0.02669614 6.25086184 -0.03324625 8.07055664 -0.03710938 C10.83575627 -0.04680588 13.6002092 -0.07785071 16.36523438 -0.109375 C18.13931854 -0.11590698 19.91340798 -0.12115669 21.6875 -0.125 C22.50547562 -0.1373468 23.32345123 -0.1496936 24.16621399 -0.16241455 C30.68662212 -0.13745765 36.35121901 0.9254906 41.48046875 5.265625 C44.4804061 8.98554732 44.21967705 12.28180656 44.24609375 16.87890625 C44.25179382 17.64107956 44.2574939 18.40325287 44.2633667 19.18852234 C44.27281956 20.80332042 44.27935182 22.41813782 44.28320312 24.03295898 C44.29289008 26.49562592 44.32390178 28.95745156 44.35546875 31.41992188 C44.36200085 32.98957838 44.36725051 34.55924086 44.37109375 36.12890625 C44.38344055 36.86240799 44.39578735 37.59590973 44.4085083 38.35163879 C44.38918058 42.82046103 43.7928037 45.64817513 41.04296875 49.203125 C38.9921875 50.53125 38.9921875 50.53125 36.73046875 51.453125 C35.99183594 51.76765625 35.25320313 52.0821875 34.4921875 52.40625 C27.48727093 54.68536161 20.23040337 54.4228823 12.94995117 54.44335938 C10.87832756 54.45301842 8.80771774 54.48407224 6.73632812 54.515625 C-2.60204273 54.58947295 -13.3231561 54.35947593 -20.95703125 48.203125 C-23.49829844 44.51368139 -23.24648698 40.60798504 -23.22265625 36.296875 C-23.2245697 35.53515991 -23.22648315 34.77344482 -23.22845459 33.98864746 C-23.22981281 32.38158843 -23.22614175 30.77451829 -23.21777344 29.16748047 C-23.20706847 26.71166268 -23.21768071 24.25657636 -23.23046875 21.80078125 C-23.22914709 20.23697756 -23.22658456 18.67317432 -23.22265625 17.109375 C-23.22670471 16.37698608 -23.23075317 15.64459717 -23.23492432 14.89001465 C-23.201056 11.19652902 -23.16647039 8.25175226 -20.95703125 5.203125 C-14.00666462 0.61326024 -8.18292648 0.04220194 0 0 Z M-10.95703125 14.203125 C-11.04451332 16.12980007 -11.06400459 18.05964361 -11.0546875 19.98828125 C-11.05146484 21.15810547 -11.04824219 22.32792969 -11.04492188 23.53320312 C-11.03654297 24.76490234 -11.02816406 25.99660156 -11.01953125 27.265625 C-11.01501953 28.50119141 -11.01050781 29.73675781 -11.00585938 31.00976562 C-10.99402733 34.07426617 -10.97754298 37.13867221 -10.95703125 40.203125 C-7.18768021 42.66469212 -3.39437962 42.49276032 0.94921875 42.46875 C1.71093384 42.47066345 2.47264893 42.4725769 3.25744629 42.47454834 C4.86450532 42.47590656 6.47157546 42.4722355 8.07861328 42.46386719 C10.53443107 42.45316222 12.98951739 42.46377446 15.4453125 42.4765625 C17.00911619 42.47524084 18.57291943 42.47267831 20.13671875 42.46875 C20.86910767 42.47279846 21.60149658 42.47684692 22.3560791 42.48101807 C26.38961167 42.44403161 28.32587288 42.06167293 32.04296875 40.203125 C32.04296875 31.293125 32.04296875 22.383125 32.04296875 13.203125 C26.89385267 11.48675297 24.07730089 10.94704162 18.8515625 10.9375 C17.84996849 10.93462982 17.84996849 10.93462982 16.82814026 10.93170166 C15.42554342 10.9303486 14.02293367 10.93398321 12.62036133 10.94238281 C10.48294816 10.95311255 8.34637205 10.94244949 6.20898438 10.9296875 C4.83984191 10.93100892 3.47069996 10.93357096 2.1015625 10.9375 C0.25002563 10.94088379 0.25002563 10.94088379 -1.63891602 10.94433594 C-5.07474425 11.21230577 -8.42136922 11.66746297 -10.95703125 14.203125 Z "
        fill="#82BE0F" transform="translate(473.95703125,747.796875)" />
    <path
        d="M0 0 C1.16648575 0.0028299 2.3329715 0.00565979 3.5348053 0.00857544 C7.24336201 0.01972862 10.9516731 0.04482464 14.66015625 0.0703125 C17.18163713 0.08034857 19.7031218 0.08947332 22.22460938 0.09765625 C28.39071897 0.1196521 34.55664603 0.15414877 40.72265625 0.1953125 C40.72265625 3.8253125 40.72265625 7.4553125 40.72265625 11.1953125 C38.53539917 11.2250415 38.53539917 11.2250415 36.30395508 11.25537109 C30.88988076 11.33148837 25.47607305 11.42019679 20.06225586 11.51269531 C17.71986152 11.55095966 15.37740892 11.58581696 13.03491211 11.6171875 C9.66629225 11.66289275 6.29807252 11.72087911 2.9296875 11.78125 C1.88367874 11.79280121 0.83766998 11.80435242 -0.24003601 11.81625366 C-1.2206752 11.83612335 -2.20131439 11.85599304 -3.21166992 11.87646484 C-4.0710466 11.88978851 -4.93042328 11.90311218 -5.81584167 11.9168396 C-8.78584449 12.14287225 -8.78584449 12.14287225 -13.27734375 14.1953125 C-13.27734375 22.7753125 -13.27734375 31.3553125 -13.27734375 40.1953125 C-10.33424512 41.17634538 -8.32765345 41.34752937 -5.25512695 41.40063477 C-3.72387932 41.4305526 -3.72387932 41.4305526 -2.16169739 41.46107483 C-1.0616185 41.47778732 0.03846039 41.49449982 1.171875 41.51171875 C2.29962845 41.53249985 3.4273819 41.55328094 4.58930969 41.57469177 C8.19619585 41.64014097 11.80315554 41.69905094 15.41015625 41.7578125 C17.85352327 41.80100211 20.29688281 41.84461654 22.74023438 41.88867188 C28.73429941 41.9958177 34.72843849 42.09709841 40.72265625 42.1953125 C40.72265625 46.1553125 40.72265625 50.1153125 40.72265625 54.1953125 C33.76669338 54.24495703 26.81083495 54.28114781 19.85473633 54.30517578 C17.49111127 54.31519868 15.1274985 54.32882056 12.76391602 54.34619141 C9.35560054 54.37060319 5.94744982 54.38183304 2.5390625 54.390625 C1.4918251 54.40094757 0.44458771 54.41127014 -0.63438416 54.42190552 C-9.46590611 54.42323915 -17.17688766 53.91031374 -24.27734375 48.1953125 C-26.78025741 44.44094201 -26.6533089 41.37797633 -26.71875 37.01953125 C-26.73252182 36.21675247 -26.74629364 35.41397369 -26.76048279 34.58686829 C-26.78374793 32.88814169 -26.80101689 31.18932395 -26.81274414 29.49047852 C-26.83965009 26.90144709 -26.91454454 24.31651628 -26.99023438 21.72851562 C-27.00689479 20.07554825 -27.02066016 18.42254866 -27.03125 16.76953125 C-27.06110489 16.00058029 -27.09095978 15.23162933 -27.12171936 14.43937683 C-27.09528271 11.18030154 -26.91938578 9.04089132 -24.91403198 6.39981079 C-17.62022049 -0.34718471 -9.41864937 -0.08656187 0 0 Z "
        fill="#82BE0F" transform="translate(109.27734375,747.8046875)" />
    <path
        d="M0 0 C1.53102104 0.0001133 1.53102104 0.0001133 3.0929718 0.00022888 C4.72760628 0.00797081 4.72760628 0.00797081 6.39526367 0.01586914 C7.52018723 0.01728409 8.64511078 0.01869904 9.80412292 0.02015686 C13.39052001 0.02574608 16.97685426 0.03829667 20.56323242 0.05102539 C22.99747631 0.05604178 25.43172118 0.06060445 27.8659668 0.06469727 C33.82757949 0.075712 39.7891453 0.09296928 45.75073242 0.11352539 C45.75073242 3.74352539 45.75073242 7.37352539 45.75073242 11.11352539 C43.71550415 11.14325439 43.71550415 11.14325439 41.63916016 11.17358398 C36.58656828 11.2498788 31.53425543 11.33855922 26.48193359 11.4309082 C24.29872156 11.46909944 22.11544872 11.50396923 19.93212891 11.53540039 C16.78680751 11.58126518 13.64190118 11.63922435 10.49682617 11.69946289 C9.0417289 11.7167897 9.0417289 11.7167897 7.55723572 11.73446655 C-0.90968893 11.63480023 -0.90968893 11.63480023 -8.24926758 15.11352539 C-8.33664403 16.9672215 -8.35624911 18.8242008 -8.34692383 20.67993164 C-8.34370117 21.80463867 -8.34047852 22.9293457 -8.3371582 24.08813477 C-8.3287793 25.27213867 -8.32040039 26.45614258 -8.31176758 27.67602539 C-8.30725586 28.86389648 -8.30274414 30.05176758 -8.2980957 31.27563477 C-8.28626433 34.22164765 -8.26978044 37.1675622 -8.24926758 40.11352539 C-2.21328597 42.20248077 3.35864351 42.45356088 9.71557617 42.52758789 C10.74888565 42.54695404 11.78219513 42.56632019 12.84681702 42.58627319 C16.12720647 42.64575838 19.4076316 42.69232991 22.68823242 42.73852539 C24.92066908 42.77673375 27.15309144 42.81578713 29.38549805 42.85571289 C34.84045926 42.95143438 40.29548943 43.03557977 45.75073242 43.11352539 C45.75073242 46.74352539 45.75073242 50.37352539 45.75073242 54.11352539 C38.52826152 54.18803506 31.30601756 54.24229774 24.08325195 54.27832031 C21.62943623 54.29334763 19.17564709 54.31377519 16.72192383 54.33984375 C13.1819805 54.37649359 9.64239428 54.39331294 6.10229492 54.40649414 C4.47355942 54.42971992 4.47355942 54.42971992 2.81192017 54.45341492 C-5.3454723 54.45519168 -12.52300181 53.72447639 -19.33496094 48.95141602 C-21.85082782 45.221734 -21.95332282 42.05946677 -21.87817383 37.70727539 C-21.88058578 36.90495483 -21.88299774 36.10263428 -21.88548279 35.27600098 C-21.88450619 33.5849105 -21.87115716 31.89378732 -21.84619141 30.20288086 C-21.81186967 27.62120466 -21.82554225 25.04295199 -21.8449707 22.46118164 C-21.83807187 20.81403172 -21.82839913 19.1668906 -21.81567383 17.51977539 C-21.8206337 16.75193726 -21.82559357 15.98409912 -21.83070374 15.19299316 C-21.75080234 11.53881895 -21.37985272 9.32268578 -19.42871094 6.19750977 C-14.1127782 1.11441333 -7.09503106 -0.01760554 0 0 Z "
        fill="#82BE0F" transform="translate(104.249267578125,665.886474609375)" />
    <path
        d="M0 0 C1.00065994 0.00007553 2.00131989 0.00015106 3.03230286 0.00022888 C4.10018539 0.00539017 5.16806793 0.01055145 6.26831055 0.01586914 C7.37103806 0.01728409 8.47376556 0.01869904 9.60990906 0.02015686 C13.12497696 0.02574535 16.63998071 0.0382958 20.1550293 0.05102539 C22.54109608 0.05604188 24.92716387 0.06060452 27.31323242 0.06469727 C33.15635603 0.07571103 38.99943179 0.09296781 44.8425293 0.11352539 C44.8425293 3.74352539 44.8425293 7.37352539 44.8425293 11.11352539 C42.86845093 11.14325439 42.86845093 11.14325439 40.85449219 11.17358398 C35.93975725 11.25005074 31.02530262 11.33870298 26.11083984 11.4309082 C23.98980267 11.46902904 21.86870457 11.5039104 19.74755859 11.53540039 C16.68654707 11.58141983 13.62594896 11.63935139 10.56518555 11.69946289 C9.1583828 11.7167897 9.1583828 11.7167897 7.72315979 11.73446655 C6.3727787 11.76427109 6.3727787 11.76427109 4.99511719 11.79467773 C4.21568253 11.8080014 3.43624786 11.82132507 2.63319397 11.83505249 C-1.34995646 12.23252033 -5.24985986 13.24516743 -9.1574707 14.11352539 C-8.8274707 22.69352539 -8.4974707 31.27352539 -8.1574707 40.11352539 C-2.60608391 41.97992667 -2.60608391 41.97992667 2.83813477 42.43237305 C4.248918 42.46217758 4.248918 42.46217758 5.6882019 42.49258423 C6.68530182 42.50413544 7.68240173 42.51568665 8.7097168 42.52758789 C9.74444122 42.54695404 10.77916565 42.56632019 11.84524536 42.58627319 C15.13592396 42.64584381 18.42663797 42.69236444 21.7175293 42.73852539 C23.95452335 42.77672587 26.19150302 42.8157788 28.4284668 42.85571289 C33.89970354 42.95152696 39.37100913 43.03564124 44.8425293 43.11352539 C44.8425293 46.74352539 44.8425293 50.37352539 44.8425293 54.11352539 C37.63838654 54.21296145 30.43464998 54.28526241 23.22998047 54.33325195 C20.7829695 54.35327369 18.33600581 54.38049937 15.88916016 54.4152832 C12.35657022 54.46421702 8.82461701 54.48658955 5.29174805 54.50415039 C4.21108566 54.52479553 3.13042328 54.54544067 2.01701355 54.56671143 C-5.1872204 54.56880378 -11.76683188 53.65109343 -18.1574707 50.11352539 C-21.69494111 46.33419039 -21.60992652 42.77160762 -21.59106445 37.80493164 C-21.5963063 37.00119614 -21.60154816 36.19746063 -21.60694885 35.36936951 C-21.61336166 33.67236484 -21.61204162 31.97531568 -21.60351562 30.27832031 C-21.59501027 27.68807419 -21.62376678 25.10003785 -21.65551758 22.51000977 C-21.65712992 20.85831772 -21.65655142 19.20662178 -21.65356445 17.55493164 C-21.66479843 16.78395645 -21.67603241 16.01298126 -21.68760681 15.21864319 C-21.64026996 11.54773754 -21.29728282 9.33817578 -19.34130859 6.1953125 C-14.04649298 1.14792371 -7.06476903 -0.01788549 0 0 Z "
        fill="#82BE0F" transform="translate(478.157470703125,665.886474609375)" />
    <path
        d="M0 0 C3.63 0 7.26 0 11 0 C11 5.61 11 11.22 11 17 C25.52 17 40.04 17 55 17 C55 11.39 55 5.78 55 0 C58.96 0 62.92 0 67 0 C67 17.82 67 35.64 67 54 C63.04 54 59.08 54 55 54 C55 45.42 55 36.84 55 28 C40.48 28 25.96 28 11 28 C11 36.58 11 45.16 11 54 C7.37 54 3.74 54 0 54 C0 36.18 0 18.36 0 0 Z "
        fill="#82BE0F" transform="translate(160,666)" />
    <path
        d="M0 0 C22.44 0 44.88 0 68 0 C68 7.26 68 14.52 68 22 C45.56 22 23.12 22 0 22 C0 14.74 0 7.48 0 0 Z "
        fill="#82BE0F" transform="translate(537,531)" />
    <path
        d="M0 0 C21.78 0 43.56 0 66 0 C66 3.63 66 7.26 66 11 C57.09 11 48.18 11 39 11 C39 25.19 39 39.38 39 54 C35.04 54 31.08 54 27 54 C27 39.81 27 25.62 27 11 C18.09 11 9.18 11 0 11 C0 7.37 0 3.74 0 0 Z "
        fill="#82BE0F" transform="translate(532,666)" />
    <path
        d="M0 0 C22.11 0 44.22 0 67 0 C67 3.63 67 7.26 67 11 C57.76 11 48.52 11 39 11 C39 25.19 39 39.38 39 54 C35.37 54 31.74 54 28 54 C28 39.81 28 25.62 28 11 C18.76 11 9.52 11 0 11 C0 7.37 0 3.74 0 0 Z "
        fill="#82BE0F" transform="translate(379,748)" />
    <path
        d="M0 0 C3.5520858 2.31657769 5.60510254 4.26986875 7.875 7.875 C8.84847501 12.59847005 8.33951877 15.94596246 6.1875 20.25 C3.07013048 23.78863567 1.11066755 25.59810539 -3.6796875 26.19140625 C-9.67176354 26.44310592 -13.49667423 26.0404932 -18.125 21.875 C-21.50800955 18.06201562 -21.64396654 15.3048241 -21.46875 10.34765625 C-20.94767524 6.59947076 -19.71942221 4.6024695 -17.125 1.875 C-11.30470876 -1.41950448 -6.34773005 -2.28518282 0 0 Z M-11.125 2.875 C-11.455 3.535 -11.785 4.195 -12.125 4.875 C-8.495 4.875 -4.865 4.875 -1.125 4.875 C-2.88636355 2.69168311 -2.88636355 2.69168311 -5.0703125 2.6796875 C-8.09765625 2.77734375 -8.09765625 2.77734375 -11.125 2.875 Z M-14.125 4.875 C-16.67122159 7.8927441 -17.37515077 10.14871093 -17.0625 14 C-16.46061318 18.28628618 -16.46061318 18.28628618 -12.125 20.875 C-12.125 15.595 -12.125 10.315 -12.125 4.875 C-12.785 4.875 -13.445 4.875 -14.125 4.875 Z M-0.125 5.875 C-0.87927297 10.85406259 -0.87927297 10.85406259 -1.125 15.875 C0.31250191 17.56298827 0.31250191 17.56298827 1.875 18.875 C3.77868048 16.07546988 3.86684124 14.71726401 3.6875 11.25 C3.21575097 7.61169952 3.21575097 7.61169952 -0.125 5.875 Z M-8.125 7.875 C-8.125 8.865 -8.125 9.855 -8.125 10.875 C-6.475 10.545 -4.825 10.215 -3.125 9.875 C-3.455 9.215 -3.785 8.555 -4.125 7.875 C-5.445 7.875 -6.765 7.875 -8.125 7.875 Z M-8.125 14.875 C-8.125 16.855 -8.125 18.835 -8.125 20.875 C-9.445 21.205 -10.765 21.535 -12.125 21.875 C-10.84625 22.08125 -9.5675 22.2875 -8.25 22.5 C-7.17105469 22.67402344 -7.17105469 22.67402344 -6.0703125 22.8515625 C-5.10738281 22.86316406 -5.10738281 22.86316406 -4.125 22.875 C-3.465 22.215 -2.805 21.555 -2.125 20.875 C-3.3989589 18.83666576 -4.73561923 16.83647874 -6.125 14.875 C-6.785 14.875 -7.445 14.875 -8.125 14.875 Z "
        fill="#82BE0F" transform="translate(625.125,748.125)" />
</svg>